<?xml version="1.0" encoding="UTF-8" standalone="no"?>
<!-- Created with Inkscape (http://www.inkscape.org/) -->

<svg
   width="210mm"
   height="297mm"
   viewBox="0 0 210 297"
   version="1.1"
   id="svg5"
   inkscape:version="1.1.2 (08b2f3d93c, 2022-04-05)"
   sodipodi:docname="logo.svg"
   xmlns:inkscape="http://www.inkscape.org/namespaces/inkscape"
   xmlns:sodipodi="http://sodipodi.sourceforge.net/DTD/sodipodi-0.dtd"
   xmlns="http://www.w3.org/2000/svg"
   xmlns:svg="http://www.w3.org/2000/svg">
  <sodipodi:namedview
     id="namedview7"
     pagecolor="#ffffff"
     bordercolor="#666666"
     borderopacity="1.0"
     inkscape:pageshadow="2"
     inkscape:pageopacity="0.0"
     inkscape:pagecheckerboard="0"
     inkscape:document-units="mm"
     showgrid="false"
     showguides="true"
     inkscape:guide-bbox="true"
     inkscape:zoom="0.66468038"
     inkscape:cx="27.832926"
     inkscape:cy="330.98615"
     inkscape:window-width="1360"
     inkscape:window-height="668"
     inkscape:window-x="0"
     inkscape:window-y="0"
     inkscape:window-maximized="1"
     inkscape:current-layer="layer1" />
  <defs
     id="defs2">
    <clipPath
       clipPathUnits="userSpaceOnUse"
       id="clipPath106618">
      <g
         inkscape:label="Clip"
         id="use106620"
         transform="translate(-2.895278e-5)">
        <text
           xml:space="preserve"
           style="font-style:normal;font-variant:normal;font-weight:normal;font-stretch:normal;font-size:171.584px;line-height:1.25;font-family:'Nimbus Roman';-inkscape-font-specification:'Nimbus Roman, ';fill:#ffffff;fill-opacity:1;stroke:none;stroke-width:1.78733"
           x="137.19444"
           y="238.42128"
           id="text106996"
           transform="matrix(0.22313084,0,0,0.24657088,-299.31668,9.3837832)"><tspan
             sodipodi:role="line"
             id="tspan106994"
             style="font-style:normal;font-variant:normal;font-weight:normal;font-stretch:normal;font-size:171.584px;font-family:'Nimbus Roman';-inkscape-font-specification:'Nimbus Roman, ';fill:#ffffff;fill-opacity:1;stroke-width:1.78733"
             x="137.19444"
             y="238.42128">F</tspan></text>
        <text
           xml:space="preserve"
           style="font-style:normal;font-weight:normal;font-size:94.73px;line-height:1.25;font-family:sans-serif;fill:#000000;fill-opacity:1;stroke:none;stroke-width:0.986773"
           x="401.0184"
           y="158.8017"
           id="text107002"
           transform="matrix(0.18869157,0,0,0.29157407,-299.31668,9.3837832)"><tspan
             sodipodi:role="line"
             id="tspan106998"
             style="font-style:normal;font-variant:normal;font-weight:normal;font-stretch:normal;font-size:94.73px;font-family:'Nimbus Roman';-inkscape-font-specification:'Nimbus Roman, ';fill:#ffffff;fill-opacity:1;stroke-width:0.986773"
             x="401.0184"
             y="158.8017">ROBERT FERRER</tspan><tspan
             sodipodi:role="line"
             style="font-size:94.73px;stroke-width:0.986773"
             x="401.0184"
             y="284.48621"
             id="tspan107000" /></text>
        <text
           xml:space="preserve"
           style="font-style:normal;font-weight:normal;font-size:39.6478px;line-height:1.25;font-family:sans-serif;letter-spacing:13.5147px;fill:#000000;fill-opacity:1;stroke:none;stroke-width:0.412999"
           x="323.78537"
           y="243.54976"
           id="text107006"
           transform="matrix(0.22948391,0,0,0.23974477,-299.31668,9.3837832)"><tspan
             sodipodi:role="line"
             style="font-style:normal;font-variant:normal;font-weight:normal;font-stretch:normal;font-size:39.6478px;font-family:'Nimbus Roman';-inkscape-font-specification:'Nimbus Roman, ';fill:#ffffff;fill-opacity:1;stroke-width:0.412999"
             x="323.78537"
             y="243.54976"
             id="tspan107004">SYSTEMS DEVELOPER</tspan></text>
      </g>
    </clipPath>
  </defs>
  <g
     inkscape:label="Layer 1"
     inkscape:groupmode="layer"
     id="layer1">
    <rect
       style="fill:#aaeeff;fill-opacity:1;stroke-width:0.165347"
       id="rect431"
       width="213.38736"
       height="299.30905"
       x="-1.4511585"
       y="-1.010438" />
    <g
       id="g1954"
       inkscape:export-filename="/home/robert/Pictures/logomini.png"
       inkscape:export-xdpi="96"
       inkscape:export-ydpi="96"
       transform="translate(-5.217991,0.644128)">
      <text
         xml:space="preserve"
         style="font-style:normal;font-variant:normal;font-weight:normal;font-stretch:normal;font-size:48.5626px;line-height:1.25;font-family:'Nimbus Roman';-inkscape-font-specification:'Nimbus Roman, ';fill:#ffffff;fill-opacity:1;stroke:none;stroke-width:0.505861"
         x="29.2957"
         y="142.18646"
         id="text1707"
         transform="scale(1.0302169,0.97066942)"
         inkscape:export-filename="/home/robert/Documents/logo.png"
         inkscape:export-xdpi="96"
         inkscape:export-ydpi="96"><tspan
           sodipodi:role="line"
           id="tspan1705"
           style="font-style:normal;font-variant:normal;font-weight:normal;font-stretch:normal;font-size:48.5626px;font-family:'Nimbus Roman';-inkscape-font-specification:'Nimbus Roman, ';fill:#ffffff;fill-opacity:1;stroke-width:0.505861"
           x="29.2957"
           y="142.18646">F</tspan></text>
      <path
         id="path1709"
         style="fill:#ffffff;fill-opacity:1;stroke-width:0.204816"
         d="m 43.76878,94.557194 c -0.969409,0.01124 -1.937128,0.282735 -2.916059,0.806371 -2.913125,1.557645 -17.498049,9.133705 -21.844186,11.416055 -1.789855,0.93943 -2.661032,2.37685 -2.661465,4.24555 -0.0024,7.69462 2.21e-4,15.38909 -0.0024,23.08389 4.23e-4,0.92129 0.21322,1.73758 0.642776,2.44122 0.441607,0.72373 1.111602,1.32867 2.018688,1.80472 4.346348,2.28235 18.933384,9.85764 21.845864,11.41567 1.958716,1.04786 3.871171,1.0854 5.8443,0.0526 7.316691,-3.83025 14.643164,-7.64438 21.963081,-11.47053 0.907086,-0.47585 1.577078,-1.08119 2.01868,-1.80433 0.428914,-0.70365 0.642355,-1.51973 0.642785,-2.44121 0,0 -1.44e-4,-15.38528 -0.003,-23.08009 -3.78e-4,-0.94196 -0.222372,-1.77446 -0.671721,-2.48882 -0.441414,-0.70247 -1.102645,-1.29121 -1.989296,-1.75673 C 61.338001,102.95539 54.011921,99.141056 46.695444,95.311007 45.7092,94.794782 44.738292,94.545938 43.768881,94.557199 Z m -0.003,2.256091 c 0.886423,-0.01032 1.774774,0.217021 2.676589,0.689053 6.690152,3.502182 13.389046,6.990332 20.081359,10.488942 0.810748,0.42567 1.415103,0.96393 1.818704,1.60627 0.410882,0.65321 0.613786,1.41419 0.614217,2.27552 0.0027,7.03609 0.0027,21.10433 0.0027,21.10433 -4.31e-4,0.8426 -0.195133,1.58869 -0.587329,2.2321 -0.4038,0.66124 -1.016577,1.21495 -1.84601,1.65007 -6.693299,3.49861 -13.392694,6.98621 -20.083041,10.48856 -1.804223,0.94442 -3.552901,0.91015 -5.34394,-0.048 -2.66319,-1.42465 -16.001237,-8.35128 -19.975516,-10.43826 -0.829431,-0.43529 -1.442632,-0.98868 -1.846432,-1.65045 -0.392786,-0.64341 -0.586892,-1.38968 -0.587324,-2.23209 0.0025,-7.0361 -4e-5,-14.07185 0.0025,-21.10777 4.3e-4,-1.70874 0.796698,-3.02316 2.433342,-3.88217 3.974082,-2.08697 17.310476,-9.014739 19.974227,-10.439041 0.895126,-0.478809 1.779661,-0.726749 2.666085,-0.737047 z" />
    </g>
    <g
       id="g2626"
       transform="translate(-8.7440984,7.8652518)"
       inkscape:export-filename="/home/robert/Pictures/logo.png"
       inkscape:export-xdpi="96"
       inkscape:export-ydpi="96">
      <text
         xml:space="preserve"
         style="font-style:normal;font-weight:normal;font-size:30.8779px;line-height:1.25;font-family:sans-serif;fill:#ffffff;fill-opacity:1;stroke:none;stroke-width:0.321646"
         x="93.274246"
         y="41.019775"
         id="text41741"
         transform="scale(0.80445508,1.2430775)"
         inkscape:export-filename="/home/robert/Documents/logo.png"
         inkscape:export-xdpi="96"
         inkscape:export-ydpi="96"><tspan
           sodipodi:role="line"
           id="tspan41739"
           style="font-style:normal;font-variant:normal;font-weight:normal;font-stretch:normal;font-size:30.8779px;font-family:'Nimbus Roman';-inkscape-font-specification:'Nimbus Roman, ';fill:#ffffff;fill-opacity:1;stroke-width:0.321646"
           x="93.274246"
           y="41.019775">Robert Ferrer</tspan><tspan
           sodipodi:role="line"
           style="font-size:30.8779px;fill:#ffffff;fill-opacity:1;stroke-width:0.321646"
           x="93.274246"
           y="81.987511"
           id="tspan48255" /></text>
      <text
         xml:space="preserve"
         style="font-style:normal;font-weight:normal;font-size:10.8855px;line-height:1.25;font-family:sans-serif;letter-spacing:3.7105px;fill:#ffffff;fill-opacity:1;stroke:none;stroke-width:0.11339"
         x="97.058685"
         y="51.363464"
         id="text86627"
         transform="scale(0.772014,1.2953133)"
         inkscape:export-filename="/home/robert/Documents/logo.png"
         inkscape:export-xdpi="96"
         inkscape:export-ydpi="96"><tspan
           sodipodi:role="line"
           style="font-style:normal;font-variant:normal;font-weight:normal;font-stretch:normal;font-size:10.8855px;font-family:'Nimbus Roman';-inkscape-font-specification:'Nimbus Roman, ';fill:#ffffff;fill-opacity:1;stroke-width:0.11339"
           x="97.058685"
           y="51.363464"
           id="tspan86625">SYSTEMS DEVELOPER</tspan></text>
      <g
         id="g2122"
         transform="translate(0,-76.729209)">
        <text
           xml:space="preserve"
           style="font-style:normal;font-variant:normal;font-weight:normal;font-stretch:normal;font-size:48.5626px;line-height:1.25;font-family:'Nimbus Roman';-inkscape-font-specification:'Nimbus Roman, ';fill:#ffffff;fill-opacity:1;stroke:none;stroke-width:0.505861"
           x="29.2957"
           y="142.18646"
           id="text2118"
           transform="scale(1.0302169,0.97066942)"
           inkscape:export-filename="/home/robert/Documents/logo.png"
           inkscape:export-xdpi="96"
           inkscape:export-ydpi="96"><tspan
             sodipodi:role="line"
             id="tspan2116"
             style="font-style:normal;font-variant:normal;font-weight:normal;font-stretch:normal;font-size:48.5626px;font-family:'Nimbus Roman';-inkscape-font-specification:'Nimbus Roman, ';fill:#ffffff;fill-opacity:1;stroke-width:0.505861"
             x="29.2957"
             y="142.18646">F</tspan></text>
        <path
           id="path2120"
           style="fill:#ffffff;fill-opacity:1;stroke-width:0.204816"
           d="m 43.76878,94.557194 c -0.969409,0.01124 -1.937128,0.282735 -2.916059,0.806371 -2.913125,1.557645 -17.498049,9.133705 -21.844186,11.416055 -1.789855,0.93943 -2.661032,2.37685 -2.661465,4.24555 -0.0024,7.69462 2.21e-4,15.38909 -0.0024,23.08389 4.23e-4,0.92129 0.21322,1.73758 0.642776,2.44122 0.441607,0.72373 1.111602,1.32867 2.018688,1.80472 4.346348,2.28235 18.933384,9.85764 21.845864,11.41567 1.958716,1.04786 3.871171,1.0854 5.8443,0.0526 7.316691,-3.83025 14.643164,-7.64438 21.963081,-11.47053 0.907086,-0.47585 1.577078,-1.08119 2.01868,-1.80433 0.428914,-0.70365 0.642355,-1.51973 0.642785,-2.44121 0,0 -1.44e-4,-15.38528 -0.003,-23.08009 -3.78e-4,-0.94196 -0.222372,-1.77446 -0.671721,-2.48882 -0.441414,-0.70247 -1.102645,-1.29121 -1.989296,-1.75673 C 61.338001,102.95539 54.011921,99.141056 46.695444,95.311007 45.7092,94.794782 44.738292,94.545938 43.768881,94.557199 Z m -0.003,2.256091 c 0.886423,-0.01032 1.774774,0.217021 2.676589,0.689053 6.690152,3.502182 13.389046,6.990332 20.081359,10.488942 0.810748,0.42567 1.415103,0.96393 1.818704,1.60627 0.410882,0.65321 0.613786,1.41419 0.614217,2.27552 0.0027,7.03609 0.0027,21.10433 0.0027,21.10433 -4.31e-4,0.8426 -0.195133,1.58869 -0.587329,2.2321 -0.4038,0.66124 -1.016577,1.21495 -1.84601,1.65007 -6.693299,3.49861 -13.392694,6.98621 -20.083041,10.48856 -1.804223,0.94442 -3.552901,0.91015 -5.34394,-0.048 -2.66319,-1.42465 -16.001237,-8.35128 -19.975516,-10.43826 -0.829431,-0.43529 -1.442632,-0.98868 -1.846432,-1.65045 -0.392786,-0.64341 -0.586892,-1.38968 -0.587324,-2.23209 0.0025,-7.0361 -4e-5,-14.07185 0.0025,-21.10777 4.3e-4,-1.70874 0.796698,-3.02316 2.433342,-3.88217 3.974082,-2.08697 17.310476,-9.014739 19.974227,-10.439041 0.895126,-0.478809 1.779661,-0.726749 2.666085,-0.737047 z" />
      </g>
    </g>
    <g
       id="g2130"
       transform="translate(58.208364)"
       style="fill:#6c757d;fill-opacity:1">
      <text
         xml:space="preserve"
         style="font-style:normal;font-variant:normal;font-weight:normal;font-stretch:normal;font-size:48.5626px;line-height:1.25;font-family:'Nimbus Roman';-inkscape-font-specification:'Nimbus Roman, ';fill:#6c757d;fill-opacity:1;stroke:none;stroke-width:0.505861"
         x="29.2957"
         y="142.18646"
         id="text2126"
         transform="scale(1.0302169,0.97066942)"
         inkscape:export-filename="/home/robert/Documents/logo.png"
         inkscape:export-xdpi="96"
         inkscape:export-ydpi="96"><tspan
           sodipodi:role="line"
           id="tspan2124"
           style="font-style:normal;font-variant:normal;font-weight:normal;font-stretch:normal;font-size:48.5626px;font-family:'Nimbus Roman';-inkscape-font-specification:'Nimbus Roman, ';fill:#6c757d;fill-opacity:1;stroke-width:0.505861"
           x="29.2957"
           y="142.18646">F</tspan></text>
      <path
         id="path2128"
         style="fill:#6c757d;fill-opacity:1;stroke-width:0.204816"
         d="m 43.76878,94.557194 c -0.969409,0.01124 -1.937128,0.282735 -2.916059,0.806371 -2.913125,1.557645 -17.498049,9.133705 -21.844186,11.416055 -1.789855,0.93943 -2.661032,2.37685 -2.661465,4.24555 -0.0024,7.69462 2.21e-4,15.38909 -0.0024,23.08389 4.23e-4,0.92129 0.21322,1.73758 0.642776,2.44122 0.441607,0.72373 1.111602,1.32867 2.018688,1.80472 4.346348,2.28235 18.933384,9.85764 21.845864,11.41567 1.958716,1.04786 3.871171,1.0854 5.8443,0.0526 7.316691,-3.83025 14.643164,-7.64438 21.963081,-11.47053 0.907086,-0.47585 1.577078,-1.08119 2.01868,-1.80433 0.428914,-0.70365 0.642355,-1.51973 0.642785,-2.44121 0,0 -1.44e-4,-15.38528 -0.003,-23.08009 -3.78e-4,-0.94196 -0.222372,-1.77446 -0.671721,-2.48882 -0.441414,-0.70247 -1.102645,-1.29121 -1.989296,-1.75673 C 61.338001,102.95539 54.011921,99.141056 46.695444,95.311007 45.7092,94.794782 44.738292,94.545938 43.768881,94.557199 Z m -0.003,2.256091 c 0.886423,-0.01032 1.774774,0.217021 2.676589,0.689053 6.690152,3.502182 13.389046,6.990332 20.081359,10.488942 0.810748,0.42567 1.415103,0.96393 1.818704,1.60627 0.410882,0.65321 0.613786,1.41419 0.614217,2.27552 0.0027,7.03609 0.0027,21.10433 0.0027,21.10433 -4.31e-4,0.8426 -0.195133,1.58869 -0.587329,2.2321 -0.4038,0.66124 -1.016577,1.21495 -1.84601,1.65007 -6.693299,3.49861 -13.392694,6.98621 -20.083041,10.48856 -1.804223,0.94442 -3.552901,0.91015 -5.34394,-0.048 -2.66319,-1.42465 -16.001237,-8.35128 -19.975516,-10.43826 -0.829431,-0.43529 -1.442632,-0.98868 -1.846432,-1.65045 -0.392786,-0.64341 -0.586892,-1.38968 -0.587324,-2.23209 0.0025,-7.0361 -4e-5,-14.07185 0.0025,-21.10777 4.3e-4,-1.70874 0.796698,-3.02316 2.433342,-3.88217 3.974082,-2.08697 17.310476,-9.014739 19.974227,-10.439041 0.895126,-0.478809 1.779661,-0.726749 2.666085,-0.737047 z" />
    </g>
    <g
       id="g2218"
       transform="translate(116.946)"
       style="fill:#000000">
      <text
         xml:space="preserve"
         style="font-style:normal;font-variant:normal;font-weight:normal;font-stretch:normal;font-size:48.5626px;line-height:1.25;font-family:'Nimbus Roman';-inkscape-font-specification:'Nimbus Roman, ';fill:#000000;fill-opacity:1;stroke:none;stroke-width:0.505861"
         x="29.2957"
         y="142.18646"
         id="text2214"
         transform="scale(1.0302169,0.97066942)"
         inkscape:export-filename="/home/robert/Documents/logo.png"
         inkscape:export-xdpi="96"
         inkscape:export-ydpi="96"><tspan
           sodipodi:role="line"
           id="tspan2212"
           style="font-style:normal;font-variant:normal;font-weight:normal;font-stretch:normal;font-size:48.5626px;font-family:'Nimbus Roman';-inkscape-font-specification:'Nimbus Roman, ';fill:#000000;fill-opacity:1;stroke-width:0.505861"
           x="29.2957"
           y="142.18646">F</tspan></text>
      <path
         id="path2216"
         style="fill:#000000;fill-opacity:1;stroke-width:0.204816"
         d="m 43.76878,94.557194 c -0.969409,0.01124 -1.937128,0.282735 -2.916059,0.806371 -2.913125,1.557645 -17.498049,9.133705 -21.844186,11.416055 -1.789855,0.93943 -2.661032,2.37685 -2.661465,4.24555 -0.0024,7.69462 2.21e-4,15.38909 -0.0024,23.08389 4.23e-4,0.92129 0.21322,1.73758 0.642776,2.44122 0.441607,0.72373 1.111602,1.32867 2.018688,1.80472 4.346348,2.28235 18.933384,9.85764 21.845864,11.41567 1.958716,1.04786 3.871171,1.0854 5.8443,0.0526 7.316691,-3.83025 14.643164,-7.64438 21.963081,-11.47053 0.907086,-0.47585 1.577078,-1.08119 2.01868,-1.80433 0.428914,-0.70365 0.642355,-1.51973 0.642785,-2.44121 0,0 -1.44e-4,-15.38528 -0.003,-23.08009 -3.78e-4,-0.94196 -0.222372,-1.77446 -0.671721,-2.48882 -0.441414,-0.70247 -1.102645,-1.29121 -1.989296,-1.75673 C 61.338001,102.95539 54.011921,99.141056 46.695444,95.311007 45.7092,94.794782 44.738292,94.545938 43.768881,94.557199 Z m -0.003,2.256091 c 0.886423,-0.01032 1.774774,0.217021 2.676589,0.689053 6.690152,3.502182 13.389046,6.990332 20.081359,10.488942 0.810748,0.42567 1.415103,0.96393 1.818704,1.60627 0.410882,0.65321 0.613786,1.41419 0.614217,2.27552 0.0027,7.03609 0.0027,21.10433 0.0027,21.10433 -4.31e-4,0.8426 -0.195133,1.58869 -0.587329,2.2321 -0.4038,0.66124 -1.016577,1.21495 -1.84601,1.65007 -6.693299,3.49861 -13.392694,6.98621 -20.083041,10.48856 -1.804223,0.94442 -3.552901,0.91015 -5.34394,-0.048 -2.66319,-1.42465 -16.001237,-8.35128 -19.975516,-10.43826 -0.829431,-0.43529 -1.442632,-0.98868 -1.846432,-1.65045 -0.392786,-0.64341 -0.586892,-1.38968 -0.587324,-2.23209 0.0025,-7.0361 -4e-5,-14.07185 0.0025,-21.10777 4.3e-4,-1.70874 0.796698,-3.02316 2.433342,-3.88217 3.974082,-2.08697 17.310476,-9.014739 19.974227,-10.439041 0.895126,-0.478809 1.779661,-0.726749 2.666085,-0.737047 z" />
    </g>
  </g>
</svg>
